# xmcd
#
# Track frame offsets: 
#        150
#        15257
#        29334
#        51965
#        63433
#        80906
#        101799
#        123015
#        139386
#
# Disc length: 2112 seconds
#
# Revision: 0
# Processed by: cddbd v1.5.2PL0 Copyright (c) Steve Scherf et al.
# Submitted via: ExactAudioCopy v1.3
#
DISCID=77083e09
DTITLE=Tyler Childers - Country Squire
DYEAR=2019
DGENRE=Country
TTITLE0=Country Squire
TTITLE1=Bus Route
TTITLE2=Creeker
TTITLE3=Gemini
TTITLE4=House Fire
TTITLE5=Ever Lovin' Hand
TTITLE6=Peace Of Mind
TTITLE7=All Your'n
TTITLE8=Matthew
EXTD=
EXTT0=
EXTT1=
EXTT2=
EXTT3=
EXTT4=
EXTT5=
EXTT6=
EXTT7=
EXTT8=
PLAYORDER=
